<svg 
  xmlns="http://www.w3.org/2000/svg"
  width="10"
  height="10"
  fill="white"
  version="1.0"
  viewBox="0 0 500 500"
>
  <path d="M240.5 17.6c-5.8 4.4-8.4 5.4-14.2 5.4-3.2 0-6-.8-9-2.6-8.1-4.7-16-3.1-22 4.3-5.6 7.1-12.7 8.8-22.7 5.8-8.1-2.5-14.6.4-19 8.5a23 23 0 0 1-6.9 7.8c-3.7 2.5-4.8 2.7-12.4 2.5-9.4-.3-12.9.9-16.2 5.5a20.3 20.3 0 0 0-2.7 5.8c-1.9 8.4-7.9 13.2-18 14.4-3.5.5-7.6 1.6-9 2.5C85.2 79.6 82 84.8 82 88c0 9.3-5.9 16.5-15.8 19.3-4.8 1.3-6.7 2.4-8.9 5.4-2.5 3.3-2.8 4.5-2.9 11.7a28 28 0 0 1-1.7 11.2c-1.8 3.6-7.2 8.4-9.2 8.4-2.2 0-8.1 5.6-9.5 9-1.2 2.9-1.1 4.2.6 15.3 1 5.8-1.8 11.9-7.7 16.8-8.6 7.2-9.6 11.6-5.3 22.3 3.4 8.2 2.8 13.7-2.2 19.9-7.4 9.1-8.1 15.3-2.5 22.9 6 8.1 6.2 13.9 1 23.7-4.6 8.6-3.7 13.6 3.6 21.1 2.4 2.5 4.9 5.8 5.4 7.3 1.6 4 1.3 10.9-.4 15-3.4 8.1-1 14.3 7.5 19.9 3.7 2.4 5.8 4.7 7.6 8.4 2.3 4.6 2.4 5.9 1.8 12.6-.9 10.6 1.7 15.2 10.6 18.3 8.4 3 13 9.4 13 18.2 0 9.1 5.6 15.4 14.6 16.7 9 1.2 14.3 6.5 16.4 16.3 1.2 5.4 5.6 11 9.4 11.8 1.1.2 5.2.6 8.9.8 9.3.6 13.5 3.5 17.5 12 4.6 9.6 7.4 11 19.9 10.2 9.1-.5 10.1-.4 13.8 1.7 2.2 1.3 5.3 4.3 6.9 6.7 5.3 8 12.2 10 20.7 6.1 8.3-3.7 15.8-2.1 23.5 5 2.4 2.2 5.5 4.2 6.9 4.6 4 1 9.4-.2 13.6-3.2a18.8 18.8 0 0 1 22.8.1 18 18 0 0 0 13.6 3.1c1.4-.4 4.5-2.4 6.9-4.6 7.7-7.1 15.2-8.7 23.5-5 8.3 3.8 15.2 1.8 20.6-6 1.7-2.5 4.9-5.5 7.1-6.8 3.6-2.1 4.7-2.2 13.9-1.7 12.6.7 14.7-.3 19.5-10 4.6-9.2 8.4-11.7 18.8-12.2 5.4-.2 8.4-.9 10.2-2.2 3.3-2.4 7-7.9 7-10.4 0-3.8 4.2-10.8 7.9-13.2 2-1.3 5.6-2.7 8.1-3.1 9.1-1.4 13.6-5.7 14.6-14.1 1.1-10 1.6-11.5 5-15.3 2.3-2.5 5.3-4.5 8.4-5.5 5.2-1.7 9.6-5.9 10.6-10.2.4-1.3.4-5.3 0-8.7-1-9.8 1.5-15 9.7-20.6 8.1-5.4 10.2-11.1 7.3-19.6-3.3-9.7-1.5-17.2 5.6-23.2 3.4-2.9 5.8-7.7 5.8-11.8 0-1.5-1.6-6-3.6-10.1-3.2-6.3-3.5-7.9-3-11.8.4-2.6 2.2-6.6 4.3-9.7 4.9-7.1 5.5-12.9 1.9-17.8-6.7-9.2-7.6-10.9-8.2-15.1-.5-3.5-.1-5.8 2-10.6 4.3-10.3 3.4-14.1-5.3-22.3-7.6-7.1-9-11.1-7.1-20.9.7-3.8 1-8 .6-9.4-.9-3.9-5.4-8.5-10.5-11a19.7 19.7 0 0 1-7.4-6.3c-2.6-3.6-2.9-5-3-12.6-.2-7.6-.5-8.8-3-12.1-2.1-2.8-4.1-4-8.5-5.3-3.1-.9-7.2-2.8-9.1-4.1-3.9-3-7-9.3-7.1-14.3 0-4.1-2.9-9.2-6.4-11.5-1.4-.9-5.5-2-9-2.5-10.1-1.2-16.1-6.1-18.2-14.5-1.9-8.1-7.8-12-16.6-11.2-10.6.9-16.9-2.1-21.4-10.4-4.4-8-10.9-10.9-19-8.4-9.9 3-17.7.9-23-6-5.4-7.2-13.8-8.7-21.7-4.1-3 1.8-5.8 2.6-9 2.6-5.8 0-8.4-1-14.2-5.4-4-3.1-5.4-3.6-10-3.6s-6 .5-10 3.6zM277 31.1a222 222 0 0 1 192.5 190.7c2 14.8 1.9 41.8-.1 57.4A220.8 220.8 0 0 1 250 471a208 208 0 0 1-97.5-22.5A220 220 0 0 1 29.9 276c-1.6-12.4-1.3-41.4.6-55A221.4 221.4 0 0 1 277 31.1z"/>
  <path d="m232 42.6-11.5 1.5a209.1 209.1 0 0 0-138.4 82.5A208 208 0 0 0 49 307a209 209 0 0 0 331.4 106.3 207.6 207.6 0 0 0 58.2-251.8A208.3 208.3 0 0 0 285 44.9c-10-1.9-46.4-3.5-53-2.3zm46.1 6a204 204 0 0 1 175 180.9c1.9 15.8.7 43.2-2.6 59.5A204.2 204.2 0 0 1 47 227a213.6 213.6 0 0 1 29.9-85c31-49.9 84.8-84.8 144.4-93.4 13.1-1.9 43.1-1.9 56.8 0z"/>
  <path d="M226 50.5a182.6 182.6 0 0 0-39.9 9.1 201 201 0 0 0-78.2 333.5c30 29.9 68 49.2 111.6 56.5a255 255 0 0 0 60.5 0A201.7 201.7 0 0 0 445 199a208.5 208.5 0 0 0-43-81.3 203.6 203.6 0 0 0-176-67.2zm43.8 1.6c24.9 2.7 45.8 8.6 67.7 19.3a193.6 193.6 0 0 1 66.3 52.1c18.2 21.6 29 42.4 39.7 76.5 7 22 7 70.5 0 98.5a199.5 199.5 0 0 1-244 144.9A201.1 201.1 0 0 1 63.9 323.3c-4-10.2-11.7-40.4-12.9-51.2-1.9-17-.8-44 2.6-60.1A200.8 200.8 0 0 1 269.8 52.1z"/>
  <path d="M147.5 141.2c-1.6 7.2-8.5 51-8.5 54.4 0 2.1-.8 7-1.6 10.9-.9 3.8-2 9.5-2.4 12.5l-5.3 32a704.6 704.6 0 0 0-5.1 33c-.4 3.6-2 11.9-3.6 18.5a593.7 593.7 0 0 0-10.4 59.7c.6.9 56.6-.1 57.5-1.1.7-.8 6.9-43.3 8-55.6a327 327 0 0 1 4.3-31.5c1.5-7.8 2.9-16.8 4.8-30.8a26 26 0 0 1 1.8-8.2c1.4 0 4 4.9 3.4 6.4-.3.9-.2 1.6.4 1.6 1.1 0 5.2 7.8 5.2 10.1s5.3 15.7 10.3 25.9a170.1 170.1 0 0 1 12.7 32.6 412 412 0 0 0 20.2 50.5c1.4.9 22 0 22.9-1 .8-.8 19.4-45.7 20.4-49.1.4-1.4 2.9-7.2 5.5-13s7.3-17 10.4-25c5.6-14.4 9-22.6 12.7-30.7a33 33 0 0 0 1.9-5.1c0-1.8 2.6-6.2 3.5-5.9 1.5.5 2.8 15.6 1.5 17.2-.8.9-.8 1.5 0 2 .5.3 1 2.5 1 4.9 0 2.3.4 4.6.9 5.1.5.6 1.2 3.5 1.4 6.5.3 3 1.2 10 2.1 15.5.8 5.5 1.3 10.2 1.1 10.5-.9 1.4 5.1 55.1 7.3 65l.7 3.4 28.8.3 28.7.2v-2.2c0-4-6.8-47-8.9-56.2-1.1-5-3.2-18-4.6-29-1.4-11-3.3-23.4-4.1-27.5-.8-4.1-2-12.2-2.8-18-4.3-32.3-10.8-79.3-12.3-87.8l-.5-3.2h-58.4l-7.7 19.2a421.1 421.1 0 0 0-10.2 28.2c-1.4 4.9-4.5 13.6-7 19.5S269 217 269 217.5c0 .6-1.3 3.5-2.9 6.6-1.7 3-3.5 7.7-4.2 10.3-.6 2.5-1.9 5.2-2.8 5.9-.9.7-1.7 2.5-1.8 4 0 1.6-.8 3.6-1.7 4.6-.9 1-1.6 3.2-1.6 4.9 0 8.3-5.6.5-11.2-15.7-1.6-4.6-3.6-9.8-4.5-11.4a399.4 399.4 0 0 1-14.8-39.7c-2.1-6.6-11.1-31.2-17-46.3-.7-1.6-3-1.7-29.6-1.7H148l-.5 2.2zM278.7 366c-1.8 1.5-2.7 3.1-2.7 5.1 0 1.7-.6 3.2-1.5 3.5-.8.4-1.5 1.7-1.5 3 0 1.5.6 2.4 1.5 2.4 1.2 0 1.5 1.4 1.5 6.5v6.5h6v-6.4c0-6 .2-6.4 2.4-6.8 3.8-.7 4.5.2 4.8 6.7.3 5.9.3 6 3.3 6s3 0 3.3-6.3c.2-4.6.7-6.2 1.7-6.2.9 0 1.5-1 1.5-2.5 0-1.6-.6-2.5-1.5-2.5s-1.5-.9-1.5-2.5c0-2.2-.4-2.5-3.5-2.5-3 0-3.5.3-3.5 2.4 0 2.7-1.3 3.5-4.8 2.8-3.1-.6-2.7-4.6.6-5 1.9-.3 2.3-.9 2-3-.4-3.6-4.4-4.1-8.1-1.2zm-70.2 1.1c-.9 2.9 1.5 5.3 4.4 4.4 1.7-.5 2.1-1.3 1.9-3.3-.4-3.6-5.3-4.5-6.3-1.1zm-92.2-.3c-.9.6-5.3 21.3-5.3 25.2 0 1.3 5.7 1.3 6.5 0 .3-.5.9-3.2 1.2-6 .3-2.8.9-5.3 1.3-5.5.4-.2 1.8 2.3 3.1 5.7 1.3 3.4 3 6.3 3.7 6.6.8.2 2.5-2.3 4.5-6.8l3.2-7.3 1 6.9c1 6.8 1 6.9 4.3 7.2 2.1.2 3.2-.1 3.2-1 0-3-3.4-24.4-4-25.1-.3-.4-2-.4-3.7-.1-2.7.5-3.4 1.4-5.3 6.5-1.2 3.2-2.6 5.7-3 5.4-.4-.2-1.7-3.2-2.9-6.5-1.8-4.9-2.6-6-4.4-6-1.2 0-2.7.4-3.4.8zm199.4 1.2c-3 2.4-4.3 7-2.7 10 .6 1.2 3.1 3 5.6 4 4.9 2.1 6 5 1.8 5-1.4 0-3.4-.5-4.5-1-1.6-.9-2.1-.6-3.1 1.5-1.6 3.5-.1 4.7 6.4 5.3 6.2.5 10.2-1.9 11.1-6.5.8-4.4-.9-7.2-5.8-9.4-5.6-2.5-6.3-5.4-1-4.6 2.9.5 3.7.2 4.6-1.5.9-1.8.8-2.4-.7-3.5-2.7-2-8.7-1.6-11.7.7zm22.7-1.3a122 122 0 0 0-4.7 25.5c.2.5 1.7.8 3.3.8 2.6 0 3-.4 3.6-3.8 2-11.6 1.6-11.3 4.8-3.4 1.5 4 3.3 7.2 4 7.2.7 0 2.7-3.3 4.4-7.2l3-7.3.7 5c1.2 9.2 1.3 9.5 4.4 9.5 1.5 0 3-.2 3.3-.5a68 68 0 0 0-1.3-12.3l-1.9-12.5c0-.4-1.7-.7-3.8-.7-3.7 0-3.8.1-5.7 5.6-1 3-2.2 5.7-2.6 6-.4.2-1.8-2.4-3.1-5.8-2-5.2-2.8-6.3-4.8-6.6-1.4-.1-3 .1-3.6.5zm32.6.1c-.6.2-1 5.6-1 13.3v13l3.3-.3c3-.3 3.2-.6 3.5-4.6.3-4 .4-4.2 3.6-4.2 4 0 8.1-3 9-6.5.9-3.6-1.8-9.3-4.6-9.9-3-.7-12.5-1.2-13.8-.8zm9.4 5.8c.9.3 1.6 1.7 1.6 3 0 1.9-.5 2.4-2.5 2.4-2.1 0-2.5-.5-2.5-3 0-3.1.6-3.5 3.4-2.4zm-229.6 3c-5.7 3-6.5 9.8-1.9 14.5 2.4 2.4 3.8 2.9 7.6 2.9s5.2-.5 7.6-2.9c4.7-4.8 3.8-11.6-2.1-14.6a11.5 11.5 0 0 0-11.2.1zm9 7.3c.5 3.2-2.3 5.4-4.9 4-1.9-1-2.6-4.9-1.2-6.3.4-.4 1.9-.6 3.3-.4 1.8.2 2.6 1 2.8 2.7zm64.6-7.9c-2.8 1.1-6.4 5.8-6.4 8.2 0 2.8 2.7 7.6 4.9 8.8 1.1.5 3.6 1 5.5 1 3.3 0 3.6-.2 3.6-3.1 0-2.5-.3-2.9-1.8-2.5-3 1-5.6-1.6-4.8-4.7.5-2.2 1.2-2.7 3.6-2.7 2.5 0 3-.4 3-2.4 0-3.3-3.1-4.4-7.6-2.6zm29.8 1.5c-2.7 2.3-3.2 3.4-3.2 7.1 0 3.6.5 5 2.6 6.9 2.9 2.7 8.1 3.4 10.2 1.3.9-.9 1.2-.9 1.2 0 0 .7 1.3 1.2 3 1.2h3v-18.1l-3.7.1a37 37 0 0 1-6.9-.6c-2.4-.4-3.7 0-6.2 2.1zm9.8 5c1.9 2.3.3 5.7-2.7 5.3-3.4-.4-5.1-3.1-3.4-5.2 1.7-2 4.5-2.1 6.1-.1zm-93.8 2.4.3 8.6h3c2.9 0 3-.2 3.3-5 .4-5.7 1.5-7.5 4.8-7.5 1.5 0 2.4-.7 2.6-2.1.2-1.4 1.6.5 4.8 6.5 5.8 11 6.9 11 12.7.2 2.4-4.4 4.3-8.3 4.3-8.8 0-.4-1.5-.8-3.3-.8-2.9 0-3.6.5-5.3 4.1l-2 4.1-1.8-4.1-1.9-4.1-10.9.1-10.9.1.3 8.7zm38-.2.3 8.8h6l.3-8.8.3-8.7h-7.2l.3 8.7zm27 .1.3 8.7h3c2.9 0 3-.2 3.3-5 .4-5.8 1.7-7.8 4.9-7.2 1.9.4 2.3 0 2.3-2.3 0-2.7 0-2.8-7-2.8l-7.1-.1.3 8.7z"/>
</svg>
